PathFileType	4	(X/Y/Z)	 s11c0101.trc
DataRate	CameraRate	NumFrames	NumMarkers	Units	OrigDataRate	OrigDataStartFrame	OrigNumFrames
200	200	4	48	mm	200	1751	2000
Frame#	Time	racr			lacr			c7			jug			rlel			rdr			llel			ldr			s2			lic			ric			lasi			rasi			rpsi			lpsi			rgt			lgt			rth1			rth2			rth3			rth4			rlfc			rmfc			rsh1			rsh2			rsh3			rsh4			rlmal			rcal			rtoe			rmt5			lth1			lth2			lth4			lth3			llfc			lmfc			llmal			lcal			lmt5			lsh1			lsh2			lsh3			lsh4			ltoe			SBIKE			LBIKE			RBIKE			
		X1	Y1	Z1	X2	Y2	Z2	X3	Y3	Z3	X4	Y4	Z4	X5	Y5	Z5	X6	Y6	Z6	X7	Y7	Z7	X8	Y8	Z8	X9	Y9	Z9	X10	Y10	Z10	X11	Y11	Z11	X12	Y12	Z12	X13	Y13	Z13	X14	Y14	Z14	X15	Y15	Z15	X16	Y16	Z16	X17	Y17	Z17	X18	Y18	Z18	X19	Y19	Z19	X20	Y20	Z20	X21	Y21	Z21	X22	Y22	Z22	X23	Y23	Z23	X24	Y24	Z24	X25	Y25	Z25	X26	Y26	Z26	X27	Y27	Z27	X28	Y28	Z28	X29	Y29	Z29	X30	Y30	Z30	X31	Y31	Z31	X32	Y32	Z32	X33	Y33	Z33	X34	Y34	Z34	X35	Y35	Z35	X36	Y36	Z36	X37	Y37	Z37	X38	Y38	Z38	X39	Y39	Z39	X40	Y40	Z40	X41	Y41	Z41	X42	Y42	Z42	X43	Y43	Z43	X44	Y44	Z44	X45	Y45	Z45	X46	Y46	Z46	X47	Y47	Z47	X48	Y48	Z48	
1751	8.7550	571.186277	1335.925735	-96.128488	550.068484	1338.388836	-413.913314	513.285343	1427.747431	-255.453543	509.312965	1237.269126	-259.788691	561.599289	1094.169652	56.559389	777.103959	934.437945	-32.689657	508.820832	1056.676002	-554.081703	785.928698	933.384991	-450.731128	-71.656617	1222.355557	-244.137922	144.048049	1251.594089	-453.612605	143.155403	1208.710658	-44.771174	168.113449	1187.205497	-405.000040	169.502541	1145.694867	-77.571057	-23.550312	1291.807193	-184.502737	-30.435184	1291.929108	-280.898593	65.152419	1052.085398	-37.388780	72.238319	1141.573913	-469.284345	127.970810	926.760499	-26.904454	186.705465	859.839387	-37.985908	201.848561	775.315435	-56.793156	218.963689	876.754938	-46.535046	251.690222	684.041973	-80.499118	244.861393	667.654541	-205.526979	206.893777	535.629142	-62.059651	207.216549	449.040587	-79.468676	165.905215	372.628319	-81.029049	231.890637	445.989119	-110.200304	127.196284	234.807230	-94.489445	65.147733	216.969560	-142.884567	348.918537	180.221538	-133.157148	278.321751	150.869267	-65.121294	211.592859	1096.914338	-481.403125	297.176979	1094.886505	-477.037771	308.793220	1127.620350	-461.023310	373.900431	1048.565646	-484.000670	496.827538	994.908598	-463.347956	517.980667	987.334366	-326.251058	241.037641	658.814039	-412.432712	178.694533	658.264143	-374.080620	298.809247	488.643268	-437.767539	428.391512	902.705953	-467.276679	399.208118	823.103473	-450.553012	332.451812	766.055657	-439.740145	428.072837	807.015114	-430.417236	384.668918	441.767665	-371.731520	-204.432301	961.431099	-262.747027	1.466466	82.593134	-461.176162	-15.207087	81.243333	-62.668525	
1752	8.7600	572.088428	1335.528366	-97.573624	549.218735	1340.064237	-415.535684	514.070085	1427.946599	-256.561007	509.092541	1237.535895	-262.483260	562.163456	1094.388075	55.381500	777.684067	934.116393	-33.223791	508.269868	1057.372735	-553.529832	785.871731	933.961961	-450.968985	-71.306065	1224.297751	-242.934135	143.685787	1254.215727	-452.875465	145.414603	1208.736596	-45.220587	167.373582	1189.688321	-404.068183	171.352039	1146.600533	-77.893316	-22.756639	1293.508456	-182.633594	-30.270524	1294.145243	-279.542424	64.837045	1053.317950	-35.960717	72.457158	1145.470021	-469.814608	126.501291	927.826349	-25.469451	185.030537	860.745540	-36.128340	199.907922	776.403814	-55.046337	217.401154	877.577571	-44.083685	249.650458	684.603255	-78.536180	244.751775	669.022997	-203.458420	203.854997	536.943593	-61.164677	202.703453	450.372949	-78.827805	159.498830	374.209443	-80.817999	227.424152	446.932740	-109.538230	118.756977	237.831902	-94.428163	56.697202	221.358587	-143.131763	339.530715	178.463575	-133.301134	268.317534	150.524121	-65.401504	211.496862	1100.364771	-481.134212	297.064904	1098.223507	-476.191347	308.751454	1130.818448	-459.555012	373.782603	1051.869838	-482.957049	495.991872	998.534205	-463.027966	518.016897	991.354331	-325.944173	246.549505	657.675624	-412.320461	184.000004	655.438520	-374.129575	308.976018	489.195620	-437.628522	429.748828	904.902315	-467.144424	402.200250	824.686342	-450.455469	336.700584	766.304684	-439.731671	431.369768	809.108724	-429.652945	395.954982	445.009702	-371.280216	-204.494580	961.440008	-262.727057	1.449620	82.618435	-461.172660	-15.212613	81.258292	-62.663427	
1753	8.7650	572.887258	1334.994024	-99.161664	548.497592	1341.534924	-416.908042	514.756268	1427.974440	-257.308690	508.978315	1237.643584	-264.818451	562.734534	1094.412224	54.279667	778.180269	934.052175	-33.530114	507.859533	1057.962436	-553.096564	785.649101	934.358332	-451.110394	-70.934533	1226.164296	-241.800236	143.169386	1256.593108	-452.142070	147.575400	1208.803563	-45.586111	166.530270	1191.901716	-403.272982	172.840242	1147.502096	-78.456492	-21.954141	1295.289286	-180.905678	-30.141206	1296.468897	-278.301437	64.542885	1054.719807	-34.799030	71.967069	1148.253708	-469.570445	125.411618	929.217025	-24.260812	183.935863	862.056051	-34.434748	199.250884	777.910723	-53.931497	216.633302	878.703252	-41.635875	248.988043	686.003427	-76.836872	246.312405	670.090248	-201.545853	201.582500	538.668016	-60.338862	198.842131	452.324295	-78.276421	154.032696	376.737995	-80.563498	223.586572	448.443936	-108.890273	110.802919	241.545604	-94.691102	48.501981	226.735929	-143.647217	330.209554	177.318810	-133.604699	258.381779	151.015051	-65.700177	211.212236	1103.267206	-480.769836	296.800294	1100.869802	-475.190193	308.339048	1133.412093	-458.614184	373.439149	1054.382903	-481.397370	494.507793	1001.500825	-462.512826	517.525890	994.472566	-325.365340	251.824077	655.681586	-412.258583	189.032738	651.708740	-374.402373	318.965410	489.140018	-437.457571	430.990330	906.223703	-466.911315	405.070713	825.490512	-450.146933	340.732442	765.649190	-439.720133	434.376004	810.599166	-429.087756	407.187699	447.725330	-370.994362	-204.541696	961.452466	-262.699994	1.456539	82.629682	-461.176752	-15.209678	81.291050	-62.666404	
1754	8.7700	573.646341	1334.259935	-100.644463	547.936091	1342.632094	-418.000586	515.352966	1427.841095	-257.879997	508.928135	1237.589647	-266.726353	563.196671	1094.318567	53.352537	778.674757	934.181653	-33.635070	507.453114	1058.800210	-552.753634	785.410185	934.552316	-451.313590	-70.739185	1228.178529	-240.658607	142.336402	1258.586144	-451.241799	149.549757	1208.941441	-45.847521	165.331602	1193.723458	-402.290969	173.952027	1148.516018	-78.891034	-21.182937	1297.171367	-179.262152	-30.195396	1298.856231	-277.062257	64.181230	1056.255148	-33.963130	71.376100	1150.792225	-469.340369	124.746661	930.769051	-23.272793	183.494980	863.914577	-32.915411	199.470457	780.000939	-53.068227	216.246796	880.633279	-39.197789	248.916191	687.741804	-75.192192	249.640131	671.894362	-200.114635	200.216530	541.002382	-59.620966	195.655910	454.878107	-77.786335	149.377543	380.344671	-80.346135	220.345658	450.640887	-108.342664	103.076834	246.236829	-94.807398	40.634356	232.784090	-143.881576	320.990565	176.482517	-133.965107	248.580057	152.172673	-66.009254	210.750108	1105.618152	-480.233412	296.281717	1103.117276	-474.492867	307.818954	1135.421189	-457.527663	372.809178	1056.115061	-479.579594	493.335020	1003.658026	-461.307238	516.433452	996.762428	-324.505232	256.792255	652.796522	-412.213931	193.758522	646.971008	-374.560179	328.775117	488.431375	-437.417107	432.025824	906.610537	-466.444082	407.643425	825.323437	-449.650762	344.576387	764.083015	-439.636831	437.003526	811.236610	-428.210463	418.150200	450.001362	-370.540195	-204.563987	961.455107	-262.648860	1.440464	82.649062	-461.166907	-15.211097	81.316699	-62.669356	
